<svg width="37" height="40" viewBox="0 0 37 40" fill="none" xmlns="http://www.w3.org/2000/svg">
<path d="M33.4928 8.04997L20.7522 0.707842C19.097 -0.235947 17.0663 -0.235947 15.4111 0.707842L2.67052 8.04997C1.01535 8.99376 0 10.7564 0 12.6579V27.3421C0 29.2436 1.01535 31.0062 2.67052 31.95L15.4111 39.2922C17.0663 40.2359 19.097 40.2359 20.7522 39.2922L33.4928 31.95C35.1479 31.0062 36.1633 29.2436 36.1633 27.3421V12.6579C36.1494 10.7564 35.134 8.99376 33.4928 8.04997ZM5.92522 28.966C5.38277 28.966 4.85423 28.7856 4.40914 28.4108C3.44942 27.5781 3.33815 26.1208 4.17269 25.1631L16.3291 11.1589C17.1637 10.2012 18.6241 10.0902 19.5838 10.923C20.5435 11.7557 20.6548 13.213 19.8203 14.1707L7.66384 28.1749C7.20484 28.7023 6.56503 28.966 5.92522 28.966ZM31.7402 28.4247C31.3091 28.7994 30.7666 28.9799 30.2381 28.9799C29.5844 28.9799 28.9445 28.7023 28.4855 28.1749L22.6716 21.3879L16.8577 28.1749C16.3987 28.7023 15.7589 28.9799 15.1051 28.9799C14.5766 28.9799 14.048 28.7994 13.603 28.4247C12.6293 27.592 12.5181 26.1485 13.3526 25.177L20.8773 16.4053C20.8913 16.3775 20.9191 16.3636 20.933 16.3359C20.9747 16.2804 21.0303 16.2248 21.086 16.1832C21.0999 16.1693 21.0999 16.1693 21.1138 16.1554C21.1694 16.0999 21.2251 16.0583 21.2946 16.0028C21.2946 16.0028 21.2946 16.0028 21.3085 16.0028C21.3363 15.975 21.3781 15.9611 21.4059 15.9334C21.4337 15.9056 21.4754 15.8917 21.5172 15.864C21.5172 15.864 21.5311 15.864 21.5311 15.8501C21.6006 15.8085 21.6702 15.7807 21.7397 15.7391C21.7814 15.7252 21.8093 15.7113 21.851 15.6974C21.8927 15.6836 21.9344 15.6697 21.9622 15.6558C21.9901 15.6419 22.0179 15.6419 22.0457 15.628C22.1013 15.6142 22.1431 15.6003 22.1987 15.5864C22.2404 15.5725 22.2822 15.5725 22.3239 15.5586C22.3517 15.5586 22.3934 15.5448 22.4352 15.5448C22.4491 15.5448 22.4491 15.5448 22.463 15.5448C22.4769 15.5448 22.5047 15.5448 22.5186 15.5448C22.5464 15.5448 22.5603 15.5448 22.5882 15.5448C22.6577 15.5448 22.7272 15.5448 22.7968 15.5448C22.8246 15.5448 22.8385 15.5448 22.8663 15.5448C22.8802 15.5448 22.9081 15.5448 22.922 15.5448C22.9359 15.5448 22.9359 15.5448 22.9498 15.5448C22.9776 15.5448 23.0193 15.5586 23.0611 15.5586C23.1028 15.5586 23.1445 15.5725 23.1862 15.5864C23.228 15.5864 23.2558 15.6003 23.2975 15.6142C23.3114 15.6142 23.3253 15.628 23.3531 15.628C23.381 15.6419 23.4088 15.6419 23.4227 15.6558C23.4505 15.6697 23.4922 15.6836 23.5201 15.6836C23.5479 15.6974 23.5757 15.7113 23.6035 15.7252C23.6313 15.7391 23.6452 15.7391 23.6731 15.753C23.8121 15.8223 23.9651 15.9056 24.0903 16.0028C24.1181 16.0305 24.146 16.0444 24.1738 16.0722C24.2016 16.0999 24.2433 16.1277 24.2711 16.1554C24.299 16.1832 24.3268 16.1971 24.3546 16.2248C24.3963 16.2665 24.438 16.322 24.4798 16.3636L32.0323 25.1631C32.8251 26.1346 32.7139 27.592 31.7402 28.4247Z" fill="#1BE47F"/>
</svg>
